<?xml version="1.0" encoding="UTF-8" standalone="no"?>
<!DOCTYPE svg PUBLIC "-//W3C//DTD SVG 1.1//EN" "http://www.w3.org/Graphics/SVG/1.1/DTD/svg11.dtd">
<!-- 由 Microsoft Visio, SVG Export 生成 title.svg Page-1 -->
<svg xmlns="http://www.w3.org/2000/svg" xmlns:xlink="http://www.w3.org/1999/xlink" xmlns:ev="http://www.w3.org/2001/xml-events"
		xmlns:v="http://schemas.microsoft.com/visio/2003/SVGExtensions/" width="11.6929in" height="8.26772in"
		viewBox="0 0 841.89 595.276" xml:space="preserve" color-interpolation-filters="sRGB" class="st2">
	<v:documentProperties v:langID="2052" v:metric="true" v:viewMarkup="false">
		<v:userDefs>
			<v:ud v:nameU="msvSubprocessMaster" v:prompt="" v:val="VT4(Rectangle)"/>
			<v:ud v:nameU="msvNoAutoConnect" v:val="VT0(1):26"/>
		</v:userDefs>
	</v:documentProperties>

	<style type="text/css">
	<![CDATA[
		.st1 {fill:url(#grad1-4);stroke:none;stroke-linecap:butt;stroke-width:0.75}
		.st2 {fill:none;fill-rule:evenodd;font-size:12px;overflow:visible;stroke-linecap:square;stroke-miterlimit:3}
	]]>
	</style>

	<defs id="Patterns_And_Gradients">
		<radialGradient id="grad1-4" cx="1" cy="1" r="1.4">
			<stop offset="0" stop-color="#006eff" stop-opacity="1"/>
			<stop offset="1" stop-color="#00eba0" stop-opacity="1"/>
		</radialGradient>
	</defs>
	<g v:mID="0" v:index="1" v:groupContext="foregroundPage">
		<v:userDefs>
			<v:ud v:nameU="msvThemeOrder" v:val="VT0(0):26"/>
		</v:userDefs>
		<title>页-1</title>
		<v:pageProperties v:drawingScale="0.0393701" v:pageScale="0.0393701" v:drawingUnits="24" v:shadowOffsetX="9"
				v:shadowOffsetY="-9"/>
		<g id="shape12-1" v:mID="12" v:groupContext="shape" transform="translate(18,-36.0773)">
			<title>工作表.12</title>
			<path d="M368.94 427.29 C329.27 468.32 290.9 487.37 252.61 487.37 C159.64 487.37 96.23 421.34 96.23 325.64 C96.23 236.58
						 161.63 175.62 252.61 175.62 C349.95 175.62 421.19 249.54 432.03 392.29 L432.41 397.67 C439.37 505.72 499.62
						 575.76 583.59 586 C659.53 595.28 735.73 551.34 759.46 478.32 C805.89 335.43 681.7 209.65 540.64 260.73 L572.42
						 354.64 C638.14 330.87 689.09 382.47 668.24 446.63 C659.79 472.64 627.65 491.17 594.88 487.17 C559.13 482.8
						 533.57 453.94 528.73 395.2 L528.41 391.04 C515.76 194.29 403.75 76.11 252.61 76.11 C110.6 76.11 0 179.16
						 0 325.64 C0 476.15 106.35 586.9 252.61 586.9 C318.55 586.9 380.4 556.2 436.98 497.69 L368.94 427.31 L368.94
						 427.29 Z" class="st1"/>
		</g>
	</g>
</svg>
